<svg xmlns="http://www.w3.org/2000/svg" width="18" height="18" viewBox="0 0 18 18">
  <defs>
    <style>
      .cls-1 {
        fill: #4fad00;
        fill-rule: evenodd;
      }
    </style>
  </defs>
  <path class="cls-1" d="M16.989,6.215L15.9,11.1c0,0.02-.018.034-0.024,0.054a0.987,0.987,0,0,1-.97.851H6a0.976,0.976,0,0,1-.58-0.207L5.38,11.766a1.328,1.328,0,0,1-.29-0.359c-0.006-.014-0.011-0.028-0.017-0.043a0.961,0.961,0,0,1-.089-0.227L3.549,3H1A1,1,0,1,1,1,1H4.375a0.986,0.986,0,0,1,.953.765,0.947,0.947,0,0,1,.063.161L6.815,10H14.1l0.942-4.22A1,1,0,0,1,16.989,6.215ZM10.9,7.724a1,1,0,0,1-1.414,0L7.272,5.7A1,1,0,0,1,8.686,4.285L10.14,5.616l4.137-4.363a1,1,0,1,1,1.414,1.413ZM7.5,13.012A2.488,2.488,0,1,1,5,15.5,2.5,2.5,0,0,1,7.5,13.012Zm0,3.063A0.575,0.575,0,1,0,6.922,15.5,0.577,0.577,0,0,0,7.5,16.075ZM13.5,13a2.5,2.5,0,1,1-2.5,2.5A2.5,2.5,0,0,1,13.5,13Zm0,3.079a0.575,0.575,0,1,0-.579-0.575A0.577,0.577,0,0,0,13.5,16.075Z"/>
</svg>
