<svg xmlns="http://www.w3.org/2000/svg" width="34" height="34" viewBox="0 0 34 34">
<defs>
    <style>
      .cls-1 {
        fill: #e0e0e0;
        fill-rule: evenodd;
      }
    </style>
  </defs>
  <path class="cls-1" d="M1477.44,1181l15.27,15.27a1.014,1.014,0,0,1,0,1.44,1,1,0,0,1-1.43,0L1476,1182.43l-15.28,15.28a1,1,0,0,1-1.43,0,1.014,1.014,0,0,1,0-1.44l15.27-15.27-15.27-15.28a1.011,1.011,0,0,1,1.43-1.43l15.28,15.27,15.28-15.27a1.011,1.011,0,0,1,1.43,1.43Z" transform="translate(-1459 -1164)"/>
</svg>
