<svg xmlns="http://www.w3.org/2000/svg" xmlns:xlink="http://www.w3.org/1999/xlink" width="14" height="11" viewBox="0 0 14 11">
<defs>
    <style>
      .email-cls-1 {
        fill: #1976d2;
        fill-rule: evenodd;
        filter: url(#email-filter);
      }
    </style>
    <filter id="email-filter" x="1" y="1" width="14" height="11" filterUnits="userSpaceOnUse">
      <feFlood result="flood" flood-color="#999"/>
      <feComposite result="composite" operator="in" in2="SourceGraphic"/>
      <feBlend result="blend" in2="SourceGraphic"/>
    </filter>
  </defs>
  <path class="email-cls-1" d="M13.5,12H2.5A1.5,1.5,0,0,1,1,10.5v-8A1.5,1.5,0,0,1,2.5,1h11A1.5,1.5,0,0,1,15,2.5v8A1.5,1.5,0,0,1,13.5,12ZM4.525,3L7.962,6.482,11.488,3H4.525ZM13,4.488L8.764,8.671a1.047,1.047,0,0,1-.811.3,1.047,1.047,0,0,1-.812-0.3L3,4.475V10H13V4.488Z" transform="translate(-1 -1)"/>
</svg>
