<svg xmlns="http://www.w3.org/2000/svg" width="44" height="44" viewBox="0 0 44 44">
  <defs>
    <style>
      .cls-1 {
        fill: #222;
        fill-rule: evenodd;
      }
    </style>
  </defs>
  <path class="cls-1" d="M22,44A22,22,0,1,1,44,22,22,22,0,0,1,22,44ZM41.421,16.72a0.924,0.924,0,0,1-.091.051,1,1,0,0,1-.618-1.9,0.931,0.931,0,0,1,.1-0.011,20.024,20.024,0,0,0-1.977-3.875,0.924,0.924,0,0,1-.065.071,1,1,0,1,1-1.175-1.618c0.024-.017.052-0.02,0.076-0.035A20.3,20.3,0,0,0,34.6,6.331c-0.015.025-.018,0.053-0.035,0.076a1,1,0,1,1-1.618-1.176,0.923,0.923,0,0,1,.07-0.064,20.131,20.131,0,0,0-3.874-1.974,0.939,0.939,0,0,1-.011.094,1,1,0,1,1-1.9-.618,0.915,0.915,0,0,1,.047-0.083,20.094,20.094,0,0,0-4.3-.694A0.936,0.936,0,0,1,23,2a1,1,0,0,1-2,0,0.936,0.936,0,0,1,.022-0.107,19.982,19.982,0,0,0-4.3.687,0.908,0.908,0,0,1,.051.09,1,1,0,1,1-1.9.618,0.938,0.938,0,0,1-.011-0.1,20.023,20.023,0,0,0-3.874,1.977,0.927,0.927,0,0,1,.07.065A1,1,0,1,1,9.435,6.407C9.418,6.384,9.415,6.356,9.4,6.331A20.3,20.3,0,0,0,6.331,9.4c0.025,0.015.053,0.018,0.077,0.035a1,1,0,1,1-1.176,1.618,0.924,0.924,0,0,1-.065-0.07,20.133,20.133,0,0,0-1.975,3.875,0.93,0.93,0,0,1,.1.011,1,1,0,1,1-.618,1.9,0.931,0.931,0,0,1-.084-0.047,20.09,20.09,0,0,0-.694,4.3A0.917,0.917,0,0,1,2,21a1,1,0,0,1,0,2,0.938,0.938,0,0,1-.108-0.022,19.977,19.977,0,0,0,.688,4.3,0.943,0.943,0,0,1,.091-0.051,1,1,0,1,1,.618,1.9,0.931,0.931,0,0,1-.1.011,20.019,20.019,0,0,0,1.977,3.875,0.929,0.929,0,0,1,.065-0.071,1,1,0,1,1,1.176,1.618c-0.024.017-.052,0.02-0.076,0.035A20.3,20.3,0,0,0,9.4,37.669c0.015-.025.018-0.053,0.035-0.076a1,1,0,1,1,1.618,1.175,0.9,0.9,0,0,1-.07.064,20.134,20.134,0,0,0,3.874,1.974,0.939,0.939,0,0,1,.011-0.094,1,1,0,0,1,1.9.618,0.911,0.911,0,0,1-.047.083,20.091,20.091,0,0,0,4.3.694A0.935,0.935,0,0,1,21,42a1,1,0,0,1,2,0,0.935,0.935,0,0,1-.022.107,19.981,19.981,0,0,0,4.3-.687,0.9,0.9,0,0,1-.051-0.09,1,1,0,0,1,1.9-.618,0.939,0.939,0,0,1,.011.1,20.022,20.022,0,0,0,3.874-1.977,0.933,0.933,0,0,1-.07-0.065,1,1,0,1,1,1.618-1.175c0.017,0.024.02,0.052,0.035,0.076a20.3,20.3,0,0,0,3.07-3.069c-0.025-.015-0.053-0.018-0.077-0.035a1,1,0,1,1,1.175-1.618,0.914,0.914,0,0,1,.065.07,20.131,20.131,0,0,0,1.975-3.875,0.93,0.93,0,0,1-.1-0.011,1,1,0,0,1,.618-1.9,0.933,0.933,0,0,1,.084.047,20.087,20.087,0,0,0,.694-4.3A0.94,0.94,0,0,1,42,23a1,1,0,0,1,0-2,0.919,0.919,0,0,1,.108.022A19.977,19.977,0,0,0,41.421,16.72ZM22,38A16,16,0,1,1,38,22,16,16,0,0,1,22,38ZM22,7.813A14.188,14.188,0,1,0,36.188,22,14.188,14.188,0,0,0,22,7.813Zm0,26.031A11.844,11.844,0,1,1,33.844,22,11.844,11.844,0,0,1,22,33.844Zm0-22.115A10.272,10.272,0,1,0,32.272,22,10.271,10.271,0,0,0,22,11.729Z"/>
</svg>
