<svg xmlns="http://www.w3.org/2000/svg" width="44" height="44" viewBox="0 0 44 44">
  <defs>
    <style>
      .cls-1 {
        fill: #222;
        fill-rule: evenodd;
      }
    </style>
  </defs>
  <path data-name="Polygon 1" class="cls-1" d="M22,44A22,22,0,1,1,44,22,22,22,0,0,1,22,44ZM22,2A20,20,0,1,0,42,22,20,20,0,0,0,22,2Zm0,24a4,4,0,1,1,4-4A4,4,0,0,1,22,26Zm0-6a2,2,0,1,0,2,2A2,2,0,0,0,22,20Zm17.119,7.562a17.974,17.974,0,0,1-2.258,4.579q-2.675,3.081-6.346-1.872-5.375-7.255,3.238-9.965,5.876-1.849,6.233,2.2A17.978,17.978,0,0,1,39.119,27.562Zm-5.307-5.268c-3.738,1.409-4.277,3.068-2.081,6.4,1.5,2.28,2.655,3.265,3.85,1.772a16.219,16.219,0,0,0,2.386-7.355C37.875,21.213,36.362,21.333,33.812,22.294ZM32.5,16.458q-8.561,2.87-8.477-6.159,0.057-6.159,4.023-5.246A17.812,17.812,0,0,1,36.238,11Q38.341,14.5,32.5,16.458ZM34.253,11.7A16.219,16.219,0,0,0,28,7.159c-1.838-.5-2.191.976-2.065,3.7,0.184,3.991,1.6,5.016,5.448,3.958C34.01,14.092,35.3,13.3,34.253,11.7ZM27.244,32.654q3.574,5.017-.171,6.609a17.811,17.811,0,0,1-10.126.005q-3.756-1.592-.181-6.614Q22,25.3,27.244,32.654Zm-8.608.671c-1.7,2.131-2.284,3.534-.5,4.209a16.22,16.22,0,0,0,7.733,0c1.781-.676,1.2-2.077-0.5-4.206C22.876,30.205,21.131,30.205,18.636,33.325ZM11.5,16.463q-5.84-1.958-3.746-5.447A17.812,17.812,0,0,1,15.938,5.06q3.975-.92,4.034,5.244Q20.057,19.334,11.5,16.463Zm4.5-9.3a16.219,16.219,0,0,0-6.254,4.548c-1.043,1.594.251,2.385,2.879,3.107,3.852,1.058,5.264.032,5.448-3.958C18.191,8.134,17.836,6.659,15.992,7.164Zm-2.5,23.115q-3.667,4.949-6.338,1.88A17.811,17.811,0,0,1,4.016,22.53q0.353-4.065,6.234-2.216Q18.864,23.024,13.488,30.279ZM6.034,23.13a16.22,16.22,0,0,0,2.393,7.353c1.194,1.485,2.346.5,3.845-1.778,2.2-3.337,1.657-5-2.081-6.4C7.636,21.338,6.123,21.22,6.034,23.13Z"/>
</svg>
