<svg xmlns="http://www.w3.org/2000/svg" width="50" height="50" viewBox="0 0 50 50">
  <defs>
    <style>
      .nfcls-1 {
        fill: #edf0f3;
      }

      .cls-2 {
        fill: #9ea3ab;
        fill-rule: evenodd;
      }
    </style>
  </defs>
  <rect class="nfcls-1" width="50" height="50"/>
  <path data-name="no photo" class="cls-2" d="M34.9,37H33.719a8.924,8.924,0,0,0-17.429,0H15.1a1.014,1.014,0,0,1-.83-0.519,11.028,11.028,0,0,1,21.46,0A1.014,1.014,0,0,1,34.9,37ZM25,26a7,7,0,1,1,7-7A7,7,0,0,1,25,26Zm0-12a5,5,0,1,0,5,5A5,5,0,0,0,25,14Z"/>
</svg>
