<svg xmlns="http://www.w3.org/2000/svg" width="320" height="320" viewBox="0 0 160 160">
  <defs>
    <style>
      .cls-1 {
        fill: #e0e0e0;
        fill-rule: evenodd;
      }
    </style>
  </defs>
  <path class="cls-1" d="M127.5,115a2.5,2.5,0,0,1,2.5,2.5v9a2.5,2.5,0,0,1-2.5,2.5h-95a2.5,2.5,0,0,1-2.5-2.5v-9a2.5,2.5,0,0,1,2.5-2.5H35V59H32.5A2.5,2.5,0,0,1,30,56.5v-11A2.5,2.5,0,0,1,32.5,43H42V34.5A2.5,2.5,0,0,1,44.5,32h10A2.5,2.5,0,0,1,57,34.5V43h46V34.5a2.5,2.5,0,0,1,2.5-2.5h10a2.5,2.5,0,0,1,2.5,2.5V43h9.5a2.5,2.5,0,0,1,2.5,2.5v11a2.5,2.5,0,0,1-2.5,2.5H125v56h2.5ZM54,35H45v8h9V35Zm61,0h-9v8h9V35Zm12,21V46H33V56h94ZM38,59v56h84V59H38Zm-5,59v8h94v-8H33ZM99,69h13v3H99V69ZM56,77H53V72H48V69h5V64h3v5h5v3H56v5Zm-5.75,7h59.5A1.25,1.25,0,0,1,111,85.25v22.5a1.25,1.25,0,0,1-1.25,1.25H50.25A1.25,1.25,0,0,1,49,107.75V85.25A1.25,1.25,0,0,1,50.25,84ZM52,106h56V87H52v19Z"/>
</svg>
