<svg xmlns="http://www.w3.org/2000/svg" width="320" height="320" viewBox="0 0 160 160">
  <defs>
    <style>
      .cls-1 {
        fill: #e0e0e0;
        fill-rule: evenodd;
      }
    </style>
  </defs>
  <path class="cls-1" d="M80,130a50,50,0,1,1,50-50A50,50,0,0,1,80,130Zm44.392-62.371a1.952,1.952,0,1,1-.237-3.768,46.827,46.827,0,0,0-5.161-10.107,1.924,1.924,0,0,1-.6.762,1.952,1.952,0,1,1-2.294-3.158,1.922,1.922,0,0,1,.89-0.333,47.248,47.248,0,0,0-8.018-8.017,1.915,1.915,0,0,1-.332.89,1.952,1.952,0,1,1-3.158-2.295,1.922,1.922,0,0,1,.762-0.6,46.858,46.858,0,0,0-10.107-5.161A1.952,1.952,0,1,1,92.885,34.8a46.919,46.919,0,0,0-11.167-1.76,1.952,1.952,0,1,1-3.436,0A46.919,46.919,0,0,0,67.115,34.8a1.952,1.952,0,1,1-3.254,1.042,46.846,46.846,0,0,0-10.107,5.161,1.923,1.923,0,0,1,.762.6A1.952,1.952,0,1,1,51.358,43.9a1.924,1.924,0,0,1-.333-0.89,47.264,47.264,0,0,0-8.017,8.018,1.924,1.924,0,0,1,.89.333A1.952,1.952,0,1,1,41.6,54.516a1.923,1.923,0,0,1-.6-0.762,46.846,46.846,0,0,0-5.161,10.107A1.952,1.952,0,1,1,34.8,67.115a46.919,46.919,0,0,0-1.76,11.167,1.952,1.952,0,1,1,0,3.436A46.919,46.919,0,0,0,34.8,92.885a1.952,1.952,0,1,1,1.042,3.254,46.858,46.858,0,0,0,5.161,10.107,1.922,1.922,0,0,1,.6-0.762,1.952,1.952,0,1,1,2.295,3.158,1.915,1.915,0,0,1-.89.332,47.245,47.245,0,0,0,8.018,8.018,1.92,1.92,0,0,1,.333-0.89,1.952,1.952,0,1,1,3.158,2.294,1.925,1.925,0,0,1-.762.6,46.827,46.827,0,0,0,10.107,5.161,1.952,1.952,0,1,1,3.254,1.042,46.939,46.939,0,0,0,11.167,1.76,1.952,1.952,0,1,1,3.436,0,46.94,46.94,0,0,0,11.167-1.76,1.952,1.952,0,1,1,3.254-1.042,46.839,46.839,0,0,0,10.107-5.161,1.923,1.923,0,0,1-.762-0.6,1.952,1.952,0,1,1,3.158-2.294,1.912,1.912,0,0,1,.332.89,47.229,47.229,0,0,0,8.018-8.018,1.912,1.912,0,0,1-.89-0.332,1.952,1.952,0,1,1,2.294-3.158,1.923,1.923,0,0,1,.6.762,46.837,46.837,0,0,0,5.161-10.107,1.952,1.952,0,1,1,1.042-3.254,46.94,46.94,0,0,0,1.76-11.167,1.952,1.952,0,1,1,0-3.436,46.94,46.94,0,0,0-1.76-11.167A1.96,1.96,0,0,1,124.392,67.629ZM80,116a36,36,0,1,1,36-36A36,36,0,0,1,80,116Zm0-69a33,33,0,1,0,33,33A33,33,0,0,0,80,47Zm0,59a26,26,0,1,1,26-26A26,26,0,0,1,80,106Zm0-48.985A22.985,22.985,0,1,0,102.985,80,22.985,22.985,0,0,0,80,57.015Z"/>
</svg>
