<svg xmlns="http://www.w3.org/2000/svg" width="160" height="160" viewBox="0 0 160 160">
  <defs>
    <style>
      .cls-1 {
        fill: #e0e0e0;
        fill-rule: evenodd;
      }
    </style>
  </defs>
  <path class="cls-1" d="M118,108a2,2,0,0,1,2,2v7a2,2,0,0,1-2,2H42a2,2,0,0,1-2-2v-7a2,2,0,0,1,2-2h2V63H42a2,2,0,0,1-2-2V52a2,2,0,0,1,2-2h7V43a2,2,0,0,1,2-2h9a2,2,0,0,1,2,2v7H98V43a2,2,0,0,1,2-2h9a2,2,0,0,1,2,2v7h7a2,2,0,0,1,2,2v9a2,2,0,0,1-2,2h-2v45h2ZM59,44H52v6h7V44Zm49,0h-7v6h7V44Zm9,16V53H43v7h74ZM47,63v45h66V63H47Zm-4,48v5h74v-5H43ZM95,71h11v3H95V71ZM61,78H58V74H54V71h4V67h3v4h4v3H61v4Zm-5,5h48a1,1,0,0,1,1,1v18a1,1,0,0,1-1,1H56a1,1,0,0,1-1-1V84A1,1,0,0,1,56,83Zm2,17h44V86H58v14Z"/>
</svg>
