<svg xmlns="http://www.w3.org/2000/svg" width="160" height="160" viewBox="0 0 160 160">
  <defs>
    <style>
      .cls-1 {
        fill: #e0e0e0;
        fill-rule: evenodd;
      }
    </style>
  </defs>
  <path class="cls-1" d="M112.005,111H48a8.024,8.024,0,0,1-8-8V64a8.024,8.024,0,0,1,8-8h9.6a3.565,3.565,0,0,0,3.16-2.277l2.481-7.447A3.563,3.563,0,0,1,66.4,44h27.2a3.565,3.565,0,0,1,3.159,2.277l2.481,7.447A3.563,3.563,0,0,0,102.406,56h9.6a8.024,8.024,0,0,1,8,8v39A8.024,8.024,0,0,1,112.005,111Zm5-47a5,5,0,0,0-5-5H101.122a4.93,4.93,0,0,1-4.381-2.968l-2.3-7.293A2.888,2.888,0,0,0,91.877,47H68.123a2.888,2.888,0,0,0-2.567,1.739l-2.3,7.293A4.93,4.93,0,0,1,58.878,59H48a5,5,0,0,0-5,5v39a5,5,0,0,0,5,5h64a5,5,0,0,0,5-5V64Zm-7.5,5a2.5,2.5,0,1,1,2.5-2.5A2.5,2.5,0,0,1,109.5,69ZM80,102a22,22,0,1,1,22-22A22,22,0,0,1,80,102Zm0-41A19,19,0,1,0,99,80,19,19,0,0,0,80,61Zm0,31A12,12,0,1,1,92,80,12,12,0,0,1,80,92Zm0-21a9,9,0,1,0,9,9A9,9,0,0,0,80,71Z"/>
</svg>
