<svg xmlns="http://www.w3.org/2000/svg" width="320" height="320" viewBox="0 0 160 160">
  <defs>
    <style>
      .cls-1 {
        fill: #e0e0e0;
        fill-rule: evenodd;
      }
    </style>
  </defs>
  <path class="cls-1" d="M120.007,120h-80a10.029,10.029,0,0,1-10-10V61a10.03,10.03,0,0,1,10-10h12a4.456,4.456,0,0,0,3.949-2.846l3.1-9.309A4.454,4.454,0,0,1,63.006,36h34a4.456,4.456,0,0,1,3.949,2.846l3.1,9.309a4.484,4.484,0,0,0,3.949,2.877h12a10,10,0,0,1,10,9.969v49A10.029,10.029,0,0,1,120.007,120ZM127,61a7.054,7.054,0,0,0-7.063-7l-12.317.03a6.8,6.8,0,0,1-6.044-3.962l-3.021-9.086a3.348,3.348,0,0,0-2.976-1.951H64.421a3.348,3.348,0,0,0-2.976,1.951l-3.021,9.055A6.832,6.832,0,0,1,52.38,54.03L40,54a7,7,0,0,0-7,7v49a7,7,0,0,0,7,7h79.937A7.054,7.054,0,0,0,127,110V61Zm-9.5,5a2.5,2.5,0,1,1,2.5-2.5A2.5,2.5,0,0,1,117.5,66ZM80,109a27,27,0,1,1,27-27A27,27,0,0,1,80,109Zm0-51a24,24,0,1,0,24,24A24,24,0,0,0,80,58Zm0,38A14,14,0,1,1,94,82,14,14,0,0,1,80,96Zm0-25A11,11,0,1,0,91,82,11,11,0,0,0,80,71Z"/>
</svg>
