<svg xmlns="http://www.w3.org/2000/svg" width="160" height="160" viewBox="0 0 160 160">
  <defs>
    <style>
      .cls-1 {
        fill: #e0e0e0;
        fill-rule: evenodd;
      }
    </style>
  </defs>
  <path class="cls-1" d="M80,120a40,40,0,1,1,40-40A40,40,0,0,1,80,120Zm35.664-49.8a1.768,1.768,0,0,1-.518.292,1.818,1.818,0,0,1-1.124-3.458,1.781,1.781,0,0,1,.585-0.068,36.777,36.777,0,0,0-3.719-7.305,1.771,1.771,0,0,1-.4.436,1.818,1.818,0,0,1-2.137-2.942,1.776,1.776,0,0,1,.523-0.239,37.321,37.321,0,0,0-5.788-5.791,1.765,1.765,0,0,1-.24.525A1.818,1.818,0,1,1,99.9,49.513a1.793,1.793,0,0,1,.438-0.4,36.877,36.877,0,0,0-7.305-3.734,1.787,1.787,0,0,1-.07.6,1.818,1.818,0,0,1-3.458-1.124,1.783,1.783,0,0,1,.3-0.527A36.922,36.922,0,0,0,81.7,43.043a1.785,1.785,0,0,1,.12.593,1.818,1.818,0,0,1-3.636,0,1.785,1.785,0,0,1,.12-0.593,36.766,36.766,0,0,0-8.1,1.294,1.783,1.783,0,0,1,.292.518,1.818,1.818,0,0,1-3.458,1.124,1.783,1.783,0,0,1-.067-0.584,36.822,36.822,0,0,0-7.3,3.719,1.779,1.779,0,0,1,.435.4,1.818,1.818,0,0,1-2.942,2.137,1.779,1.779,0,0,1-.239-0.523,37.338,37.338,0,0,0-5.791,5.788,1.779,1.779,0,0,1,.525.24A1.818,1.818,0,0,1,49.513,60.1a1.783,1.783,0,0,1-.4-0.439,36.893,36.893,0,0,0-3.734,7.306,1.785,1.785,0,0,1,.6.07,1.818,1.818,0,0,1-1.124,3.458,1.787,1.787,0,0,1-.528-0.3A36.923,36.923,0,0,0,43.042,78.3a1.787,1.787,0,0,1,.595-0.12,1.818,1.818,0,0,1,0,3.636,1.784,1.784,0,0,1-.595-0.12,36.759,36.759,0,0,0,1.294,8.1,1.785,1.785,0,0,1,.519-0.292,1.818,1.818,0,0,1,1.124,3.458,1.783,1.783,0,0,1-.586.068,36.824,36.824,0,0,0,3.719,7.305,1.771,1.771,0,0,1,.4-0.436,1.818,1.818,0,1,1,2.137,2.942,1.777,1.777,0,0,1-.523.239,37.356,37.356,0,0,0,5.788,5.791,1.789,1.789,0,0,1,.24-0.525,1.818,1.818,0,0,1,2.942,2.137,1.762,1.762,0,0,1-.438.4,36.849,36.849,0,0,0,7.306,3.734,1.784,1.784,0,0,1,.07-0.6,1.818,1.818,0,0,1,3.458,1.124,1.778,1.778,0,0,1-.3.527,36.9,36.9,0,0,0,8.107,1.284,1.785,1.785,0,0,1-.12-0.593,1.818,1.818,0,1,1,3.636,0,1.785,1.785,0,0,1-.12.593,36.726,36.726,0,0,0,8.1-1.294,1.779,1.779,0,0,1-.292-0.517,1.818,1.818,0,0,1,3.458-1.124,1.781,1.781,0,0,1,.067.584,36.845,36.845,0,0,0,7.305-3.718,1.759,1.759,0,0,1-.436-0.4,1.818,1.818,0,0,1,2.942-2.137,1.776,1.776,0,0,1,.239.523,37.334,37.334,0,0,0,5.791-5.788,1.776,1.776,0,0,1-.525-0.24,1.818,1.818,0,0,1,2.137-2.942,1.784,1.784,0,0,1,.4.439,36.912,36.912,0,0,0,3.734-7.306,1.784,1.784,0,0,1-.6-0.07,1.818,1.818,0,0,1,1.124-3.458,1.792,1.792,0,0,1,.528.3,36.911,36.911,0,0,0,1.284-8.108,1.778,1.778,0,0,1-.594.12,1.818,1.818,0,1,1,0-3.636,1.78,1.78,0,0,1,.594.12A36.732,36.732,0,0,0,115.664,70.2ZM80,109a29,29,0,1,1,29-29A29,29,0,0,1,80,109Zm0-55a26,26,0,1,0,26,26A26,26,0,0,0,80,54Zm0,47a21,21,0,1,1,21-21A21,21,0,0,1,80,101Zm0-38.988A17.988,17.988,0,1,0,97.988,80,17.988,17.988,0,0,0,80,62.012Z"/>
</svg>
