<svg xmlns="http://www.w3.org/2000/svg" width="320" height="320" viewBox="0 0 160 160">
  <defs>
    <style>
      .cls-1, .cls-2 {
        fill: none;
        stroke: #e0e0e0;
        stroke-linecap: round;
        stroke-width: 3px;
      }

      .cls-1 {
        fill-rule: evenodd;
      }
    </style>
  </defs>
  <path class="cls-1" d="M69.613,117.1a37.395,37.395,0,0,0,20.819-.01q7.689-3.208.352-13.295Q80.011,89,69.24,103.793,61.881,113.9,69.613,117.1ZM41.519,81.57a37.392,37.392,0,0,0,6.443,19.8q5.427,6.323,12.753-3.774Q71.456,82.777,54.058,77.1,42.171,73.229,41.519,81.57ZM110.238,56.1A37.406,37.406,0,0,0,93.389,43.873q-8.106-1.925-8.1,10.549,0.019,18.3,17.428,12.663Q114.613,63.234,110.238,56.1Zm-4.267,21.01q-17.4,5.673-6.657,20.489,7.338,10.122,12.769,3.757a37.4,37.4,0,0,0,6.424-19.8Q117.832,73.25,105.971,77.112Z"/>
  <path data-name="no-photo-wheels" class="cls-1" d="M66.626,43.872A37.394,37.394,0,0,0,49.79,56.118q-4.336,7.115,7.53,10.962,17.41,5.637,17.429-12.663Q74.761,41.916,66.626,43.872Z"/>
  <circle data-name="no-photo-wheels" class="cls-2" cx="80" cy="80" r="48.5"/>
  <path data-name="no-photo-wheels" class="cls-1" d="M72.5,80A7.5,7.5,0,1,0,80,72.5,7.5,7.5,0,0,0,72.5,80Z"/>
</svg>
