<svg xmlns="http://www.w3.org/2000/svg" width="160" height="160" viewBox="0 0 160 160">
  <defs>
    <style>
      .cls-1 {
        fill: #e0e0e0;
        fill-rule: evenodd;
      }
    </style>
  </defs>
  <path class="cls-1" d="M80,120a40,40,0,1,1,40-40A40,40,0,0,1,80,120Zm0-77a37,37,0,1,0,37,37A37,37,0,0,0,80,43Zm30.453,46.906a34.123,34.123,0,0,1-4.168,8.52q-4.911,5.745-11.543-3.4-9.709-13.392,6.018-18.52,10.728-3.5,11.331,4.016A34.133,34.133,0,0,1,110.453,89.906Zm-9.64-10.292c-7.521,2.856-8.61,6.208-4.2,12.939,3.01,4.6,5.328,6.584,7.736,3.566a32.925,32.925,0,0,0,4.821-14.859C108.985,77.418,105.943,77.666,100.813,79.614Zm-1.952-8.976q-15.737,5.1-15.754-11.446Q83.1,47.909,90.428,49.657a33.8,33.8,0,0,1,15.229,11.054Q109.6,67.156,98.861,70.638Zm4-8.8a32.931,32.931,0,0,0-12.642-9.177c-3.71-1.015-4.414,1.954-4.147,7.436,0.392,8.035,3.243,10.107,11.006,8C102.385,66.656,104.99,65.065,102.864,61.843ZM87,80a7,7,0,1,1-7-7A7,7,0,0,1,87,80Zm-7-4a4,4,0,1,0,4,4A4,4,0,0,0,80,76ZM61.182,70.63q-10.735-3.476-6.807-9.909A33.8,33.8,0,0,1,69.594,49.653q7.349-1.762,7.342,9.532Q76.919,75.726,61.182,70.63Zm8.626-17.971a32.932,32.932,0,0,0-12.634,9.187c-2.112,3.215.495,4.8,5.79,6.241,7.763,2.111,10.615.039,11.006-8C74.238,54.6,73.529,51.633,69.808,52.659ZM59.248,76.486q15.73,5.139,6.025,18.542-6.621,9.143-11.528,3.411a33.88,33.88,0,0,1-5.831-17.916Q48.507,72.981,59.248,76.486ZM50.84,81.251a33.009,33.009,0,0,0,4.839,14.873c2.406,3.006,4.72,1.016,7.725-3.579,4.4-6.737,3.314-10.093-4.209-12.954C54.055,77.635,51.013,77.39,50.84,81.251Zm38.905,17.4q6.642,9.122-.318,12.018a33.789,33.789,0,0,1-18.818.009q-6.981-2.894-.337-12.027Q80.009,85.278,89.745,98.651ZM72.2,108.119a32.921,32.921,0,0,0,15.622-.006c3.6-1.36,2.422-4.175-1.016-8.453-5.04-6.27-8.565-6.27-13.6,0C69.762,103.944,68.59,106.762,72.2,108.119Z"/>
</svg>
