<svg xmlns="http://www.w3.org/2000/svg" xmlns:xlink="http://www.w3.org/1999/xlink" width="13" height="13" viewBox="0 0 13 13">
<defs>
    <style>
      .phone-cls-1 {
        fill: #999;
        fill-rule: evenodd;
        filter: url(#phone-filter);
      }
    </style>
    <filter id="phone-filter" x="0" y="0" width="13" height="13" filterUnits="userSpaceOnUse">
      <feFlood result="flood" flood-color="#999"/>
      <feComposite result="composite" operator="in" in2="SourceGraphic"/>
      <feBlend result="blend" in2="SourceGraphic"/>
    </filter>
  </defs>
  <path class="phone-cls-1" d="M12.986,10.278a0.474,0.474,0,0,0-.028-0.194,1.625,1.625,0,0,0-.7-0.49c-0.525-.3-1.06-0.582-1.577-0.887a1.9,1.9,0,0,0-.821-0.425C9.3,8.281,8.478,9.954,7.98,9.954a1.975,1.975,0,0,1-.793-0.36A9.186,9.186,0,0,1,3.416,5.813a1.989,1.989,0,0,1-.36-0.8c0-.5,1.669-1.322,1.669-1.885A1.9,1.9,0,0,0,4.3,2.309C4,1.791,3.711,1.255,3.416.729a1.637,1.637,0,0,0-.489-0.7A0.473,0.473,0,0,0,2.733,0,4.085,4.085,0,0,0,1.452.285,2.434,2.434,0,0,0,.474,1.412,3.542,3.542,0,0,0,0,3.132,7.133,7.133,0,0,0,.64,5.554a8.644,8.644,0,0,0,.765,1.618,15.581,15.581,0,0,0,4.426,4.437,8.607,8.607,0,0,0,1.614.768,7.1,7.1,0,0,0,2.416.638,3.517,3.517,0,0,0,1.715-.472,2.428,2.428,0,0,0,1.125-.98A4.121,4.121,0,0,0,12.986,10.278Z"/>
</svg>
