<svg xmlns="http://www.w3.org/2000/svg" width="18" height="16" viewBox="0 0 20 16">
  <defs>
    <style>
      .quotecls-1 {
        fill: #1976d2;
        fill-rule: evenodd;
      }
    </style>
  </defs>
  <path class="quotecls-1" d="M8.03,9.089A3.094,3.094,0,0,0,5.748,8a6.072,6.072,0,0,1,1-2.811A5.154,5.154,0,0,1,8.874,3.521L6.873,0A13.792,13.792,0,0,0,4.9,1.008,9.544,9.544,0,0,0,2.621,2.9,10.8,10.8,0,0,0,.745,5.937a12.842,12.842,0,0,0-.782,4.682,5.632,5.632,0,0,0,1.313,3.9,4.35,4.35,0,0,0,3.5,1.468A4.377,4.377,0,0,0,7.811,14.9a3.708,3.708,0,0,0,1.219-2.9A4.04,4.04,0,0,0,8.03,9.089Zm11,0A3.094,3.094,0,0,0,16.748,8a6.072,6.072,0,0,1,1-2.811,5.154,5.154,0,0,1,2.126-1.665L17.873,0A13.791,13.791,0,0,0,15.9,1.008,9.545,9.545,0,0,0,13.621,2.9a10.8,10.8,0,0,0-1.876,3.036,12.841,12.841,0,0,0-.782,4.682,5.633,5.633,0,0,0,1.313,3.9,4.35,4.35,0,0,0,3.5,1.468A4.377,4.377,0,0,0,18.811,14.9a3.708,3.708,0,0,0,1.219-2.9A4.04,4.04,0,0,0,19.03,9.089Z"/>
</svg>
