<svg xmlns="http://www.w3.org/2000/svg" width="16" height="16" viewBox="0 0 16 16">
  <defs>
    <style>
      .rcls-1 {
        fill: #999;
        fill-rule: evenodd;
      }
    </style>
  </defs>
  <path class="rcls-1" d="M15.977,8.335L15.2,13.122a0.11,0.11,0,0,1-.01.051c-0.082.7-.348,2.819-3.611,2.819L4.437,16a1.319,1.319,0,0,1-.63-0.168A1.988,1.988,0,0,1,3,16H2a2,2,0,0,1-2-2V7A2,2,0,0,1,2,5H3a1.988,1.988,0,0,1,1.553.754A2.537,2.537,0,0,0,6,3.752V1A1,1,0,0,1,7,0H8.5A3.5,3.5,0,0,1,12,3.5V5.017l1.275,0a2.762,2.762,0,0,1,1.748.653A2.911,2.911,0,0,1,15.977,8.335ZM3,7.5a0.5,0.5,0,0,0-1,0v6a0.5,0.5,0,0,0,1,0v-6Zm10.613-.187a1.218,1.218,0,0,0-.768-0.285H10.523a0.549,0.549,0,0,1-.552-0.543V3.611a1.581,1.581,0,0,0-.524-1.365,2.836,2.836,0,0,0-1.425-.231v2.2A3.375,3.375,0,0,1,6.367,7.057a7.452,7.452,0,0,1-1.3.773l-0.063,0-0.032.009v5.112c0,0.018.009,0.041,0.014,0.064a1.092,1.092,0,0,0,1.07,1.008h5.465a1.361,1.361,0,0,0,1.623-1.257,0.048,0.048,0,0,0,0-.023l0.882-4.274A1.263,1.263,0,0,0,13.613,7.312Z"/>
</svg>
