<svg xmlns="http://www.w3.org/2000/svg" width="39" height="39" viewBox="0 0 39 39">
  <defs>
    <style>
      .cls-1 {
        fill: #e32330;
      }

      .cls-2 {
        fill: #fff;
        fill-rule: evenodd;
      }
    </style>
  </defs>
  <circle class="cls-1" cx="19.5" cy="19.5" r="19.5"/>
  <path class="cls-2" d="M9,14.948a2.878,2.878,0,0,0-3.085,2.824c0,2.886,4.155,2,4.155,3.471A1.1,1.1,0,0,1,8.8,22.312c-0.809,0-1.505-.485-2.09-0.485a0.83,0.83,0,0,0-.833.883C5.877,23.88,7.942,24.1,8.9,24.1a2.955,2.955,0,0,0,3.184-2.886c0-3.209-4.155-2.388-4.155-3.669a0.9,0.9,0,0,1,1.02-.809c0.746,0,1.144.373,1.654,0.373a0.862,0.862,0,0,0,.833-0.921C11.437,15.21,9.7,14.948,9,14.948Zm4.171,7.8a1.067,1.067,0,0,0-.087.412,0.9,0.9,0,0,0,.923.873,0.867,0.867,0,0,0,.9-0.661l0.374-1.348h3.469l0.374,1.36a0.874,0.874,0,0,0,.911.649,0.831,0.831,0,0,0,.861-0.823,1.453,1.453,0,0,0-.1-0.462l-2.446-6.788a1.412,1.412,0,0,0-1.335-1.036,1.468,1.468,0,0,0-1.335,1.036ZM17,16.867h0.025l1.16,3.431H15.816Zm5.026,6.064A0.925,0.925,0,0,0,23,23.954h3.119a0.865,0.865,0,0,0,.9-0.824,0.84,0.84,0,0,0-.9-0.9H23.9V15.968a0.937,0.937,0,1,0-1.872,0v6.962Zm6.028,0.087a0.911,0.911,0,0,0,.961.936h3.219a0.844,0.844,0,0,0,.886-0.861,0.831,0.831,0,0,0-.886-0.861H29.927V19.911h2.109a0.859,0.859,0,0,0,.911-0.861,0.845,0.845,0,0,0-.911-0.861H29.927v-1.4h2.321a0.844,0.844,0,0,0,.886-0.861,0.831,0.831,0,0,0-.886-0.861H29.028a0.95,0.95,0,0,0-.973,1.086v6.863Z"/>
</svg>
